<mxfile host="app.diagrams.net" modified="2023-06-22T12:06:35.645Z" agent="Mozilla/5.0 (Windows NT 10.0; Win64; x64; rv:109.0) Gecko/20100101 Firefox/114.0" etag="2jfg-57RsYIqGQUbsp41" version="21.5.0" type="device">
  <diagram name="Seite-1" id="upwNZNaXpLdub-CbT6vO">
    <mxGraphModel dx="1434" dy="782" grid="1" gridSize="10" guides="1" tooltips="1" connect="1" arrows="1" fold="1" page="1" pageScale="1" pageWidth="1169" pageHeight="827" math="0" shadow="0">
      <root>
        <mxCell id="0" />
        <mxCell id="1" parent="0" />
        <mxCell id="uUUtru9DQ_F5nHx5f28x-1" value="Herzlich Willkommen bei der Bahnhofsmission im Hauptbahnhof Berlin/ Hintergrundbild?" style="rounded=1;whiteSpace=wrap;html=1;" vertex="1" parent="1">
          <mxGeometry x="120" y="40" width="870" height="60" as="geometry" />
        </mxCell>
        <mxCell id="uUUtru9DQ_F5nHx5f28x-12" value="&lt;blockquote id=&quot;output&quot; class=&quot;page-generator__lorem&quot;&gt;Lorem ipsum dolor &lt;br/&gt;sit amet, consectetur adipiscing elit, sed do eiusmod tempor incididunt &lt;br/&gt;ut labore et dolore magna aliqua. Ut enim ad minim veniam, quis nostrud &lt;br/&gt;exercitation ullamco laboris nisi ut aliquip ex ea commodo consequat. &lt;br/&gt;Duis aute irure dolor in reprehenderit in voluptate velit esse cillum &lt;br/&gt;dolore eu fugiat nulla pariatur. Excepteur sint occaecat cupidatat non &lt;br/&gt;proident, sunt in culpa qui officia deserunt mollit anim id est laborum.&lt;/blockquote&gt;" style="rounded=0;whiteSpace=wrap;html=1;" vertex="1" parent="1">
          <mxGeometry x="280" y="120" width="560" height="530" as="geometry" />
        </mxCell>
        <mxCell id="uUUtru9DQ_F5nHx5f28x-13" value="&lt;div&gt;O&lt;b&gt;bdachlosen Wiki&lt;/b&gt;&lt;/div&gt;&lt;div&gt;&lt;b&gt;Hilfe von Obdachlosen für Obdachlose&lt;/b&gt;&lt;/div&gt;&lt;div&gt;&lt;br&gt;&lt;/div&gt;&lt;div&gt;&lt;br&gt;&lt;/div&gt;&lt;div&gt;z. B. erste Schritte&lt;/div&gt;&lt;div&gt;Bewertungen von Einrichtungen&lt;/div&gt;&lt;div&gt;Auflistung Anlaufstellen&lt;br&gt;&lt;/div&gt;" style="rounded=0;whiteSpace=wrap;html=1;" vertex="1" parent="1">
          <mxGeometry x="870" y="120" width="120" height="210" as="geometry" />
        </mxCell>
        <mxCell id="uUUtru9DQ_F5nHx5f28x-14" value="&lt;b&gt;Unterstützt durch &lt;/b&gt;...... Hier können Links / Symbole von Sponsoren stehen " style="rounded=0;whiteSpace=wrap;html=1;" vertex="1" parent="1">
          <mxGeometry x="120" y="660" width="870" height="60" as="geometry" />
        </mxCell>
        <mxCell id="uUUtru9DQ_F5nHx5f28x-16" value="&lt;div&gt;&lt;b&gt;Hilfe für Reisende&lt;/b&gt;&lt;/div&gt;&lt;div&gt;Hilfestellungen für Reisende&lt;/div&gt;&lt;div&gt;Buchung der Umsteighilfe&lt;br&gt;&lt;/div&gt;" style="rounded=0;whiteSpace=wrap;html=1;" vertex="1" parent="1">
          <mxGeometry x="870" y="340" width="120" height="290" as="geometry" />
        </mxCell>
        <mxCell id="uUUtru9DQ_F5nHx5f28x-17" value="&lt;div&gt;&lt;b&gt;Mitarbeiterbereich&lt;/b&gt;&lt;/div&gt;&lt;div&gt;&lt;b&gt;Dienstpläne&lt;/b&gt;&lt;/div&gt;&lt;div&gt;&lt;b&gt;schwarzes Brett&lt;/b&gt;&lt;br&gt;&lt;/div&gt;&lt;div&gt;&lt;br&gt;&lt;/div&gt;&lt;div&gt;Entscheiden ob Mitarbeiterbereich ein eigener Link ist und sich eine neue Seite öffnet, oder ob wir die Bereiche als Links bereitstellen und sich popups öffnen&lt;br&gt;&lt;/div&gt;&lt;div&gt;&lt;br&gt;&lt;/div&gt;&lt;div&gt;Ergebnis dann auch auf Obdachlose und Reisende anwenden?&lt;br&gt;&lt;/div&gt;" style="rounded=0;whiteSpace=wrap;html=1;" vertex="1" parent="1">
          <mxGeometry x="120" y="160" width="120" height="400" as="geometry" />
        </mxCell>
        <mxCell id="uUUtru9DQ_F5nHx5f28x-20" value="&lt;b&gt;Footer:&lt;/b&gt; hier stehen Impressum / Datenschutz/ Kontaktdaten / Spendenkonto u. ä." style="rounded=0;whiteSpace=wrap;html=1;" vertex="1" parent="1">
          <mxGeometry x="120" y="730" width="870" height="60" as="geometry" />
        </mxCell>
      </root>
    </mxGraphModel>
  </diagram>
</mxfile>
